<svg xmlns="http://www.w3.org/2000/svg" xmlns:xlink="http://www.w3.org/1999/xlink" version="1.1" id="Layer_1" x="0px"
	y="0px" style="enable-background:new 0 0 512 256;" xml:space="preserve" viewBox="361.45 67.4 114.13 119.64">
	<style type="text/css">
		.st0 {
			fill: #7EE089;
		}

		.st1 {
			fill: #239ED6;
		}
	</style>
	<path class="st0"
		d="M412.8,113.4c4,7,4.1,13.6,0.4,20.2c-2.7,4.8-6.7,8.5-11.1,11.8c-5.4,4-10.8,7.9-16.2,11.9  c-1.6,1.2-3.1,2.5-4.3,4.1c-2.8,3.6-1.9,8.2,1.8,10.3c2.4,1.4,4.8,0.9,7.1-0.4c3-1.7,5.9-3.5,8.9-5.2c18.1-10.6,36.1-21.2,54.2-31.8  c1.6-0.9,3.2-1.8,4.6-3c0.4-0.3,0.8-0.6,1.1-0.9c2.4-2.3,2.4-3.8,0.2-6.1c-1.3-1.4-2.8-2.4-4.4-3.3c-17.6-10.4-35.3-20.7-52.9-31.1  c-3.7-2.2-7.4-4.4-11.2-6.5c-2-1.1-4-1.9-6.4-1.9c-5.1,0.1-8.9,4.7-7.9,9.8c0.5,2.9,2,5.4,3.6,7.7c3,4.4,6.6,8.2,10.4,11.9  c1.3,1.3,2.6,2.6,3.8,3.8c-0.2,0.6-0.6,0.9-1,1.1c-3.1,2.2-6.3,4.4-9.4,6.7c-0.7,0.5-1.2,0.8-2,0.1c-6.1-5.9-12.1-11.9-16.6-19.2  c-5.1-8.2-5.5-16.6-0.5-24.9c4.1-6.8,10.6-10.3,18.4-11c5.7-0.5,10.9,0.9,15.8,3.8c20.6,12.2,41.2,24.2,61.8,36.3  c4.1,2.4,8,5.1,10.8,8.9c5.4,7.2,5,16.2-1.1,22.9c-2.4,2.6-5.2,4.7-8.3,6.5c-21.5,12.6-43,25.3-64.5,37.9c-8.7,5.1-19.1,4.1-26-2.5  c-8.1-7.9-8.8-20.4-1.6-29.2c3.1-3.7,6.9-6.6,10.8-9.5c5.6-4.2,11.7-7.9,17.2-12.2c2.8-2.2,5.4-4.5,7.9-7  C409.1,120.8,411.4,117.6,412.8,113.4z">
	</path>
</svg>